<?xml version="1.0" standalone="no"?>
<!DOCTYPE svg PUBLIC "-//W3C//DTD SVG 20010904//EN"
 "http://www.w3.org/TR/2001/REC-SVG-20010904/DTD/svg10.dtd">
<svg version="1.0" xmlns="http://www.w3.org/2000/svg"
  viewBox="0 0 512.000000 512.000000"
 preserveAspectRatio="xMidYMid meet"
 fill="currentColor">

<g transform="translate(0.000000,512.000000) scale(0.100000,-0.100000)"
fill="currentColor" stroke="none">
<path d="M2075 5109 c-16 -4 -45 -21 -63 -36 -17 -15 -270 -352 -560 -748
l-529 -720 -389 -5 c-388 -5 -389 -5 -427 -29 -21 -13 -50 -42 -65 -64 l-27
-41 0 -466 0 -466 27 -41 c45 -68 87 -87 203 -91 l101 -4 103 -867 c57 -476
110 -893 119 -926 19 -78 69 -187 120 -261 40 -59 140 -161 198 -201 56 -40
170 -92 250 -115 l79 -23 1365 0 1365 0 79 23 c160 46 318 151 414 273 99 126
163 291 166 421 1 70 -2 80 -29 120 -78 112 -245 117 -323 9 -17 -24 -34 -65
-42 -103 -30 -147 -108 -250 -238 -311 l-67 -32 -1285 -3 c-935 -2 -1303 0
-1352 8 -132 23 -253 126 -298 254 -15 41 -48 285 -120 887 -55 456 -100 834
-100 839 0 6 585 11 1568 12 l1567 3 38 24 c21 13 50 42 65 64 23 34 27 52 27
107 0 55 -4 73 -27 107 -15 22 -44 51 -65 64 l-38 24 -1737 3 -1738 2 0 200 0
200 2160 0 2160 0 0 -200 0 -200 -67 0 c-38 0 -85 -5 -106 -11 -52 -14 -110
-75 -125 -130 -15 -55 -112 -909 -112 -985 0 -168 183 -259 318 -157 63 47 69
72 112 460 22 197 43 372 45 389 l5 32 98 4 c111 4 154 23 197 86 l25 37 0
475 0 475 -25 37 c-13 20 -41 47 -62 59 -38 24 -39 24 -423 27 l-385 4 -535
730 c-294 401 -547 738 -561 749 -14 10 -47 24 -73 31 -144 38 -278 -99 -237
-244 9 -30 146 -225 461 -653 l448 -610 -573 -3 c-316 -1 -835 -1 -1155 0
l-581 3 441 600 c243 330 447 611 454 625 80 154 -70 329 -239 279z"/>
<path d="M1702 1989 c-46 -14 -109 -80 -122 -128 -7 -28 -10 -186 -8 -484 l3
-442 24 -38 c13 -21 42 -50 64 -65 34 -23 52 -27 107 -27 55 0 73 4 107 27 22
15 51 44 64 65 l24 38 0 465 0 465 -24 38 c-47 76 -151 113 -239 86z"/>
<path d="M2502 1989 c-46 -14 -109 -80 -122 -128 -7 -28 -10 -186 -8 -484 l3
-442 24 -38 c13 -21 42 -50 64 -65 34 -23 52 -27 107 -27 55 0 73 4 107 27 22
15 51 44 64 65 l24 38 0 465 0 465 -24 38 c-47 76 -151 113 -239 86z"/>
<path d="M3302 1989 c-46 -14 -109 -80 -122 -128 -7 -28 -10 -186 -8 -484 l3
-442 24 -38 c13 -21 42 -50 64 -65 34 -23 52 -27 107 -27 55 0 73 4 107 27 22
15 51 44 64 65 l24 38 0 465 0 465 -24 38 c-47 76 -151 113 -239 86z"/>
</g>
</svg>
