<?xml version="1.0" standalone="no"?>
<!DOCTYPE svg PUBLIC "-//W3C//DTD SVG 20010904//EN"
 "http://www.w3.org/TR/2001/REC-SVG-20010904/DTD/svg10.dtd">
<svg version="1.0" xmlns="http://www.w3.org/2000/svg"
  viewBox="0 0 512.000000 512.000000"
 preserveAspectRatio="xMidYMid meet"
 fill="#506350">

<g transform="translate(0.000000,512.000000) scale(0.100000,-0.100000)"
fill="#506350" stroke="none">
<path d="M3880 4793 c-113 -9 -286 -37 -400 -64 -507 -124 -801 -386 -875
-782 -19 -102 -17 -200 10 -462 l19 -181 -46 -109 c-25 -61 -48 -118 -52 -128
-4 -14 -31 8 -131 110 l-126 128 -15 140 c-25 233 -31 263 -68 342 -97 203
-320 321 -645 341 -161 10 -372 -2 -496 -27 -159 -33 -175 -54 -130 -185 155
-448 363 -732 600 -818 71 -25 210 -35 282 -20 64 14 163 51 163 61 0 9 -188
161 -305 246 -96 69 -105 80 -105 120 0 40 36 75 77 75 82 0 575 -411 768
-641 l64 -76 -24 -89 c-13 -49 -29 -108 -35 -131 l-11 -43 -659 -2 c-652 -3
-659 -3 -687 -24 -62 -47 -68 -70 -68 -279 0 -181 1 -192 23 -227 13 -21 40
-45 66 -57 42 -21 48 -21 1354 -21 1436 0 1348 -4 1407 59 l30 32 3 206 c3
204 3 205 -22 243 -47 72 -33 70 -604 70 -478 0 -511 -1 -516 -17 -67 -237
-86 -273 -142 -273 -34 0 -74 42 -74 77 0 39 129 483 185 638 132 363 290 611
519 813 44 38 78 62 90 60 11 -2 28 -20 38 -40 31 -60 19 -88 -91 -203 -53
-55 -123 -141 -157 -190 -63 -93 -159 -263 -152 -270 2 -2 44 -16 93 -31 78
-24 108 -28 225 -28 123 -1 142 2 215 27 297 105 502 391 629 878 60 229 126
647 112 705 -11 42 -53 54 -178 52 -62 -1 -133 -3 -158 -5z"/>
<path d="M1256 1813 c2 -10 53 -297 114 -638 98 -558 112 -626 141 -683 34
-68 66 -100 143 -140 l51 -27 725 0 725 0 57 28 c62 30 116 84 148 146 24 48
240 1231 240 1316 0 13 -135 15 -1174 15 -1113 0 -1174 -1 -1170 -17z"/>
</g>
</svg>
